<svg width="42" height="42" fill="none" xmlns="http://www.w3.org/2000/svg">
    <path fill-rule="evenodd" clip-rule="evenodd"
          d="M23.625 30.188c0 .724-.588 1.312-1.312 1.312h-2.625a1.313 1.313 0 0 1 0-2.625h2.625c.724 0 1.312.588 1.312 1.313ZM15.25 36.75a1.312 1.312 0 1 1 0-2.625h11.503a1.313 1.313 0 0 1 0 2.625H15.249Zm-2.756-31.5a1.71 1.71 0 0 0-1.69 1.969 1.71 1.71 0 0 1-1.69 1.97H7.777a2.856 2.856 0 0 0-2.736 3.676l1.864 6.217a4.534 4.534 0 0 0 4.343 3.231c1.202 0 2.355.478 3.205 1.328l.64.64a6.72 6.72 0 0 0 4.752 1.969h2.31a6.72 6.72 0 0 0 4.751-1.968l.64-.64a4.534 4.534 0 0 1 3.206-1.329 4.534 4.534 0 0 0 4.343-3.23l1.865-6.217a2.857 2.857 0 0 0-2.737-3.678h-1.336a1.71 1.71 0 0 1-1.69-1.969 1.71 1.71 0 0 0-1.69-1.97H12.493Zm17.76 8.12a1.834 1.834 0 1 1 3.568.806l-1.341 4.443a1.505 1.505 0 0 1-2.928-.662l.7-4.588Zm-22.07.801a1.831 1.831 0 1 1 3.563-.803l.698 4.594a1.501 1.501 0 0 1-2.921.658l-1.34-4.449Z"
          fill="#9AA3CD"/>
    <path d="M17.517 20h6.776v-1.582h-4.41l2.548-2.338c.924-.84 1.918-1.764 1.918-3.192 0-1.75-1.372-2.884-3.374-2.884S17.7 11.054 17.7 13v.28h1.834v-.196c0-.938.504-1.498 1.456-1.498.826 0 1.428.49 1.428 1.316 0 .686-.378 1.176-.91 1.708l-3.99 3.92V20Z"
          fill="#000"/>
</svg>