<svg width="42" height="42" fill="none" xmlns="http://www.w3.org/2000/svg">
    <path fillRule="evenodd" clip-rule="evenodd"
          d="M23.625 30.188c0 .724-.588 1.312-1.312 1.312h-2.625a1.313 1.313 0 0 1 0-2.625h2.625c.724 0 1.312.588 1.312 1.313ZM15.25 36.75a1.312 1.312 0 1 1 0-2.625h11.503a1.313 1.313 0 0 1 0 2.625H15.249Zm-2.756-31.5a1.71 1.71 0 0 0-1.69 1.969 1.71 1.71 0 0 1-1.69 1.97H7.777a2.856 2.856 0 0 0-2.736 3.676l1.864 6.217a4.534 4.534 0 0 0 4.343 3.231c1.202 0 2.355.478 3.205 1.328l.64.64a6.72 6.72 0 0 0 4.752 1.969h2.31a6.72 6.72 0 0 0 4.751-1.968l.64-.64a4.534 4.534 0 0 1 3.206-1.329 4.534 4.534 0 0 0 4.343-3.23l1.865-6.217a2.857 2.857 0 0 0-2.737-3.678h-1.336a1.71 1.71 0 0 1-1.69-1.969 1.71 1.71 0 0 0-1.69-1.97H12.493Zm17.76 8.12a1.834 1.834 0 1 1 3.568.806l-1.341 4.443a1.505 1.505 0 0 1-2.928-.662l.7-4.588Zm-22.07.801a1.831 1.831 0 1 1 3.563-.803l.698 4.594a1.501 1.501 0 0 1-2.921.658l-1.34-4.449Z"
          fill="#C18D78"/>
    <path d="M17.953 11.74h3.808l-2.296 2.436v1.554h1.442c1.092 0 1.694.546 1.694 1.414 0 .826-.658 1.498-1.708 1.498-1.008 0-1.68-.588-1.75-1.512H17.35c.042 2.016 1.638 3.066 3.528 3.066 1.988 0 3.626-1.288 3.626-3.094 0-1.834-1.302-2.772-2.898-2.842l2.506-2.506V10.2h-6.16v1.54Z"
          fill="#000"/>
</svg>